<svg width="28" height="28" viewBox="0 0 28 28" fill="none" xmlns="http://www.w3.org/2000/svg">
<path fill-rule="evenodd" clip-rule="evenodd" d="M3.5 2.625C3.98325 2.625 4.375 3.01675 4.375 3.5L4.375 16.3333C4.375 18.283 4.37686 19.6571 4.5167 20.6972C4.65315 21.7122 4.90638 22.277 5.31473 22.6854C5.72304 23.0936 6.28783 23.3469 7.30273 23.4833C8.34282 23.6231 9.71703 23.625 11.6667 23.625L24.5 23.625C24.9832 23.625 25.375 24.0168 25.375 24.5C25.375 24.9832 24.9832 25.375 24.5 25.375L11.6016 25.375C9.73194 25.375 8.23982 25.375 7.06955 25.2177C5.86058 25.0552 4.86493 24.7104 4.07727 23.9228C3.28963 23.1351 2.94485 22.1394 2.7823 20.9304C2.62496 19.7602 2.62498 18.268 2.625 16.3984L2.625 3.5C2.625 3.01675 3.01675 2.625 3.5 2.625Z" fill="#0095E6"/>
<path fill-rule="evenodd" clip-rule="evenodd" d="M15.1667 10.7917C15.6499 10.7917 16.0417 11.1834 16.0417 11.6667L16.0417 24.5C16.0417 24.9832 15.6499 25.375 15.1667 25.375C14.6834 25.375 14.2917 24.9832 14.2917 24.5L14.2917 11.6667C14.2917 11.1834 14.6834 10.7917 15.1667 10.7917Z" fill="#0095E6"/>
<path fill-rule="evenodd" clip-rule="evenodd" d="M21 14.2917C21.4832 14.2917 21.875 14.6834 21.875 15.1667L21.875 24.5C21.875 24.9832 21.4832 25.375 21 25.375C20.5168 25.375 20.125 24.9832 20.125 24.5L20.125 15.1667C20.125 14.6834 20.5168 14.2917 21 14.2917Z" fill="#0095E6"/>
<path fill-rule="evenodd" clip-rule="evenodd" d="M9.33333 14.2917C9.81658 14.2917 10.2083 14.6834 10.2083 15.1667L10.2083 23.3333C10.2083 23.8166 9.81658 24.2083 9.33333 24.2083C8.85008 24.2083 8.45833 23.8166 8.45833 23.3333L8.45833 15.1667C8.45833 14.6834 8.85008 14.2917 9.33333 14.2917Z" fill="#0095E6"/>
<path fill-rule="evenodd" clip-rule="evenodd" d="M11.1107 7.04984C13.2076 4.26116 17.1258 4.26116 19.2226 7.04984C19.827 7.8536 20.5644 8.19859 21.4325 8.35014C22.1442 8.47439 22.879 8.46333 23.7002 8.45096C23.9577 8.44709 24.2236 8.44308 24.5 8.44308C24.9832 8.44308 25.375 8.83484 25.375 9.31808C25.375 9.80133 24.9832 10.1931 24.5 10.1931C24.2887 10.1931 24.0657 10.1967 23.8346 10.2004C22.9837 10.2141 22.0227 10.2296 21.1315 10.0741C19.9315 9.86457 18.7539 9.33836 17.8239 8.10155C16.4271 6.24392 13.9062 6.24393 12.5094 8.10157C11.5795 9.33836 10.4019 9.86457 9.20184 10.0741C8.31069 10.2296 7.34961 10.2141 6.4988 10.2004C6.26763 10.1967 6.04461 10.1931 5.83333 10.1931H3.5C3.01675 10.1931 2.625 9.80133 2.625 9.31808C2.625 8.83484 3.01675 8.44308 3.5 8.44308H5.83333C6.10972 8.44308 6.37569 8.44709 6.63317 8.45096C7.45431 8.46333 8.18919 8.47439 8.90088 8.35014C9.76898 8.19859 10.5064 7.85359 11.1107 7.04984Z" fill="#0095E6"/>
</svg>
