<svg width="28" height="28" viewBox="0 0 28 28" fill="none" xmlns="http://www.w3.org/2000/svg">
<path fill-rule="evenodd" clip-rule="evenodd" d="M20.4167 8.45835C19.9335 8.45835 19.5417 8.06659 19.5417 7.58335C19.5417 7.1001 19.9335 6.70835 20.4167 6.70835C20.8999 6.70835 21.2917 7.1001 21.2917 7.58335C21.2917 8.06659 20.8999 8.45835 20.4167 8.45835ZM17.7917 7.58335C17.7917 9.0331 18.967 10.2083 20.4167 10.2083C21.8664 10.2083 23.0417 9.0331 23.0417 7.58335C23.0417 6.1336 21.8664 4.95835 20.4167 4.95835C18.967 4.95835 17.7917 6.1336 17.7917 7.58335Z" fill="#0095E6"/>
<path d="M19.7536 1.48341C17.7099 1.39863 15.6504 1.54922 14.5811 1.64748C13.9209 1.70815 13.3049 1.97891 12.8129 2.40171C9.13607 5.56183 5.78652 8.84197 2.58402 12.4186C1.1261 14.047 1.09835 16.4942 2.42223 18.2041C4.59639 21.0121 6.98791 23.4014 9.79593 25.5755C11.5058 26.8995 13.9531 26.8739 15.5814 25.416C19.1581 22.2135 22.4382 18.8641 25.5983 15.1872C26.0213 14.6952 26.2919 14.0791 26.3526 13.419C26.4508 12.3496 26.6014 10.2902 26.5166 8.24643C26.4743 7.22456 26.3749 6.2086 26.1657 5.29787C25.9566 4.38713 25.6612 3.56293 25.0492 2.95086C24.4371 2.33881 23.6129 2.0435 22.7022 1.83432C21.7914 1.62515 20.7755 1.52581 19.7536 1.48341ZM19.6807 3.23113C20.6345 3.2707 21.5629 3.3671 22.3103 3.53875C23.0576 3.71041 23.6044 3.98068 23.8119 4.18817C24.0194 4.39564 24.2896 4.94241 24.4613 5.68979C24.6329 6.43718 24.7294 7.3656 24.7689 8.31935C24.848 10.2269 24.7037 12.2339 24.6094 13.2595C24.583 13.5469 24.4671 13.8162 24.2699 14.0456C21.1572 17.6673 17.9356 20.9601 14.4147 24.1126C13.4288 24.9954 11.9338 25.0167 10.8692 24.1924C8.17149 22.1037 5.89638 19.8286 3.80765 17.1309C2.98333 16.0662 3.00464 14.5712 3.8874 13.5853C7.03991 10.0645 10.3329 6.84284 13.9545 3.73016C14.1841 3.5328 14.4532 3.41705 14.7406 3.39064C15.7661 3.29641 17.7732 3.152 19.6807 3.23113Z" fill="#0095E6"/>
<path fill-rule="evenodd" clip-rule="evenodd" d="M16.9528 11.032C17.2945 11.3737 17.2945 11.9278 16.9528 12.2695L16.6829 12.5393C17.0577 13.2714 16.9964 14.0226 16.9683 14.3659C16.9648 14.4085 16.9617 14.4449 16.9602 14.4741C16.9346 14.9567 16.5225 15.3271 16.04 15.3013C15.5574 15.2756 15.187 14.8637 15.2127 14.381C15.2148 14.343 15.2169 14.3058 15.2189 14.2695C15.2485 13.7431 15.2679 13.3982 14.9408 13.0992C14.8222 12.9907 14.629 12.8639 14.3098 12.7514C13.9779 12.6344 13.5287 12.7632 13.2474 13.0989C13.1185 13.2526 13.0554 13.4182 13.0501 13.5738C13.0454 13.7201 13.0887 13.9238 13.2895 14.1734C13.435 14.3542 13.5727 14.5054 13.7142 14.6608C13.7203 14.6676 13.7263 14.6742 13.7324 14.6809C13.8722 14.8344 14.0347 15.0128 14.174 15.2058C14.4947 15.6497 14.6804 16.1513 14.6446 16.8459C14.6135 17.4509 14.3112 17.9864 13.931 18.387C13.5441 18.7944 13.0265 19.1191 12.4452 19.2977C11.6594 19.5393 10.8584 19.3928 10.2014 19.0209L9.9612 19.2611C9.61949 19.6027 9.06548 19.6027 8.72376 19.2611C8.38206 18.9194 8.38206 18.3653 8.72376 18.0236L8.9681 17.7793C8.57484 17.0778 8.57908 16.448 8.58094 16.1715C8.58115 16.1407 8.58132 16.1144 8.58093 16.0927C8.57192 15.6095 8.9563 15.2105 9.43946 15.2016C9.92263 15.1926 10.3216 15.5769 10.3306 16.0601C10.3316 16.1102 10.3316 16.1551 10.3317 16.1968C10.3318 16.3351 10.3319 16.4388 10.3639 16.5849C10.3999 16.7493 10.4816 16.963 10.6989 17.2057C11.0495 17.5975 11.5528 17.7413 11.931 17.625C12.2297 17.5331 12.4859 17.3674 12.6617 17.1822C12.844 16.9902 12.8931 16.8307 12.8969 16.756C12.9109 16.4842 12.8575 16.3718 12.7554 16.2306C12.6835 16.1309 12.5886 16.0241 12.4383 15.8589C12.4303 15.8501 12.4222 15.8412 12.414 15.8321C12.2759 15.6807 12.1061 15.494 11.9262 15.2705C11.49 14.7286 11.2809 14.1224 11.3012 13.5154C11.3211 12.9177 11.561 12.3864 11.9063 11.9746C12.5733 11.1789 13.7575 10.7013 14.8916 11.101C15.081 11.1677 15.2571 11.2431 15.4205 11.3269L15.7154 11.032C16.0571 10.6903 16.611 10.6903 16.9528 11.032Z" fill="#0095E6"/>
</svg>
