<svg width="28" height="28" viewBox="0 0 28 28" fill="none" xmlns="http://www.w3.org/2000/svg">
<path fill-rule="evenodd" clip-rule="evenodd" d="M2.62502 12.8177H4.37502L4.37502 18.0754C4.37502 19.7524 4.37687 20.9222 4.49538 21.805C4.61052 22.6627 4.8212 23.1171 5.14433 23.4407C5.46727 23.7642 5.9205 23.9749 6.77633 24.0901C7.65746 24.2088 8.82533 24.2107 10.5 24.2107H17.5C19.1747 24.2107 20.3425 24.2088 21.2236 24.0901C22.0795 23.9749 22.5327 23.7642 22.8557 23.4407C23.1788 23.1171 23.3895 22.6627 23.5046 21.805C23.6231 20.9222 23.625 19.7524 23.625 18.0754V12.8177H25.375V18.1394C25.375 19.7373 25.375 21.0251 25.2391 22.0378C25.0979 23.0891 24.796 23.9742 24.094 24.6772C23.3918 25.3805 22.5075 25.6831 21.4572 25.8245C20.4456 25.9607 19.1595 25.9607 17.5641 25.9607H10.4359C8.84046 25.9607 7.55435 25.9607 6.5428 25.8245C5.49243 25.6831 4.60814 25.3805 3.90596 24.6772C3.20396 23.9742 2.90207 23.0891 2.76094 22.0378C2.62497 21.0251 2.62499 19.7373 2.62502 18.1393L2.62502 12.8177Z" fill="#0095E6"/>
<path fill-rule="evenodd" clip-rule="evenodd" d="M7.29168 20.9698C7.29168 20.4865 7.68343 20.0948 8.16668 20.0948L12.8333 20.0948C13.3166 20.0948 13.7083 20.4865 13.7083 20.9698C13.7083 21.453 13.3166 21.8448 12.8333 21.8448L8.16668 21.8448C7.68343 21.8448 7.29168 21.453 7.29168 20.9698Z" fill="#0095E6"/>
<path fill-rule="evenodd" clip-rule="evenodd" d="M20.7355 2.04229C21.4198 2.0074 22.6116 2.26707 23.4733 3.1046C23.8567 3.47736 24.045 3.92975 24.1496 4.32891C24.2433 4.68616 24.284 5.06234 24.3158 5.35598C24.3184 5.38073 24.321 5.40489 24.3236 5.42841C24.4295 6.396 24.7448 7.32241 25.536 8.33601C27.1044 10.3453 26.6181 12.3726 25.5468 13.3751C24.7966 14.0772 22.9632 15.5102 20.7439 14.5955C19.8187 14.2142 19.1138 13.7089 18.6269 12.9902C18.576 12.9151 18.5281 12.8385 18.4831 12.7607C18.4006 12.8615 18.3149 12.9598 18.2264 13.055C17.5802 13.7505 16.7302 14.3455 15.769 14.6121C14.8693 14.8618 13.435 14.9867 12.0236 14.5036C11.116 14.1929 10.2399 13.6367 9.53967 12.7456C9.408 12.9665 9.25664 13.1794 9.08565 13.3798C8.32544 14.2705 7.17035 14.9162 5.6602 14.8819C5.64017 14.8814 5.62017 14.8803 5.60021 14.8785C5.12642 14.835 4.46549 14.6899 3.82673 14.3958C3.19401 14.1045 2.49269 13.6246 2.07797 12.8582C1.72628 12.2084 1.4031 11.5412 1.47093 10.7245C1.53548 9.94734 1.94224 9.17698 2.56732 8.23616C3.15538 7.35107 3.4457 6.70961 3.59242 6.23976C3.73523 5.7824 3.75202 5.45707 3.75202 5.1717C3.75202 4.6306 3.92723 3.84278 4.46091 3.18482C5.02711 2.48677 5.93164 2.01771 7.19501 2.07606L20.7355 2.04229ZM21.4658 3.90027C21.1703 3.80256 20.9253 3.78337 20.8189 3.79035C20.8006 3.79155 20.7822 3.79218 20.7638 3.79222L7.177 3.82611C7.16128 3.82615 7.14556 3.82577 7.12986 3.82496C6.37832 3.78629 6.01707 4.0443 5.82003 4.28722C5.58677 4.57481 5.50202 4.94944 5.50202 5.1717C5.50202 5.56906 5.47478 6.08274 5.26287 6.76137C5.05486 7.42751 4.67974 8.21903 4.02494 9.20459C3.40716 10.1344 3.23919 10.5773 3.21493 10.8694C3.19395 11.1219 3.26788 11.3801 3.61705 12.0253C3.78399 12.3338 4.11325 12.6012 4.55854 12.8062C4.9836 13.0019 5.43233 13.1019 5.73058 13.1329C6.65453 13.1453 7.31102 12.7633 7.75455 12.2437C8.22383 11.6938 8.44744 10.9943 8.44744 10.4591C8.44744 10.0287 8.76039 9.66227 9.18544 9.59489C9.61049 9.5275 10.0214 9.77921 10.1545 10.1885C10.674 11.7857 11.6322 12.5199 12.5904 12.8479C13.5964 13.1923 14.6607 13.1035 15.3011 12.9258C15.8832 12.7643 16.4658 12.379 16.9444 11.8638C17.4249 11.3467 17.7449 10.7587 17.8598 10.262C17.9559 9.84604 18.3382 9.56022 18.7644 9.58565C19.1905 9.61107 19.5361 9.94031 19.5822 10.3647C19.6658 11.1361 19.825 11.6385 20.0757 12.0087C20.3181 12.3664 20.7049 12.6866 21.4107 12.9775C22.5706 13.4555 23.6431 12.7599 24.351 12.0974C24.7378 11.7354 25.1872 10.7332 24.1565 9.41284C23.1553 8.13022 22.7234 6.89327 22.584 5.61885L22.5799 5.58082C22.5439 5.25248 22.5162 4.99915 22.4569 4.77281C22.3983 4.54956 22.3269 4.43082 22.2534 4.35942C22.0356 4.14765 21.7539 3.99552 21.4658 3.90027Z" fill="#0095E6"/>
</svg>
